<?xml version="1.0" encoding="UTF-8"?><svg id="Layer_1" xmlns="http://www.w3.org/2000/svg" viewBox="0 0 318.01 86.53"><path d="M29.98,77.38c0,1.71-.42,3.04-1.27,3.99-.85,.95-2.08,1.42-3.69,1.42H0v-1.53H2.05l.07-53.22H0v-1.53H25.02c1.62,0,2.85,.47,3.69,1.42,.84,.95,1.27,2.28,1.27,3.99v45.46Zm-10.89-41.73c0-1.04-.29-1.76-.88-2.14-.58-.38-1.31-.58-2.18-.58h-3.06v43.45h2.98c.37,0,.75-.05,1.12-.17,.37-.11,.71-.29,1.01-.54,.3-.25,.54-.55,.73-.91s.28-.79,.28-1.29V35.65Z"/><path d="M89.4,64.77v14.06c0,1.37-.4,2.37-1.21,3-.81,.63-1.92,.95-3.34,.95h-16.22c-1.27,0-2.26-.35-2.96-1.04-.71-.7-1.06-1.7-1.06-3.02V42.4c0-1.54,.34-2.64,1.03-3.3,.68-.66,1.8-.99,3.34-.99h15.89c1.67,0,2.84,.29,3.52,.88,.68,.58,1.03,1.61,1.03,3.08v12.38h2.09v1.53h-13.24v-1.53h1.53v-7.94c0-1.12-.29-1.92-.86-2.41-.57-.49-1.22-.73-1.94-.73-.85,0-1.52,.26-2.01,.78-.5,.52-.75,1.31-.75,2.35v27.89c0,.95,.26,1.7,.78,2.28,.52,.57,1.18,.86,1.98,.86,.72,0,1.37-.26,1.94-.78,.57-.52,.86-1.3,.86-2.35v-9.62h-1.53v-1.53h13.24v1.53h-2.09Z"/><path d="M111.93,66.45v-3.77h-7.09v13.76h6.34v-2.83h1.53v9.17h-19.54v-1.53h2.05V39.64h-2.05v-1.53h14.58c1.62,0,2.85,.47,3.69,1.42,.84,.95,1.27,2.27,1.27,3.99v3.92h-1.53v-2.98h-6.34v11.9h7.09v-3.13h1.53v13.24h-1.53Z"/><path d="M133.22,82.79v-1.53h1.79v-24.35h-6.12v24.35h1.75v1.53h-14.73v-1.53h2.05V28.04h-2.05v-1.53h14.73v1.53h-1.75v21.89h6.12V28.04h-1.79v-1.53h14.77v1.53h-2.09v53.22h2.09v1.53h-14.77Z"/><path d="M164.7,82.79v-1.53h1.6l-.45-5.74h-5.74l-.45,5.74h1.9v1.53h-12.9v-1.53h1.68l6.12-39.42c.22-1.44,.84-2.52,1.85-3.24,1.01-.72,2.65-1.08,4.94-1.08,1.29,0,2.36,.11,3.19,.32,.83,.21,1.5,.5,2.01,.88,.51,.37,.88,.83,1.1,1.36s.38,1.12,.48,1.77l5.89,39.42h1.68v1.53h-12.9Zm1.08-13.83c-.3-2.41-.57-4.74-.82-6.97-.1-.94-.2-1.92-.3-2.93-.1-1.01-.19-1.99-.26-2.95s-.13-1.87-.17-2.72c-.04-.86-.06-1.62-.06-2.29v-6.19c0-.52-.09-.89-.26-1.12-.17-.22-.4-.33-.67-.33-.22,0-.45,.11-.67,.33-.22,.22-.34,.6-.34,1.12,0,.95-.01,1.98-.04,3.1-.02,1.12-.04,2.18-.04,3.17,0,.72-.03,1.52-.07,2.41-.05,.88-.11,1.81-.19,2.78-.07,.97-.16,1.96-.26,2.96-.1,1.01-.2,1.97-.3,2.89-.25,2.19-.51,4.44-.78,6.75h5.22Z"/><path d="M209.45,82.79l.15-22.75c0-1.34,.07-2.68,.22-4.03,.15-1.34,.32-2.6,.5-3.77,.19-1.17,.37-2.21,.56-3.11,.19-.91,.32-1.6,.39-2.07,.08-.55,.05-.93-.07-1.14-.12-.21-.32-.34-.6-.39-.22-.05-.47,.02-.73,.22-.26,.2-.43,.55-.5,1.04-.08,.5-.17,1.16-.28,1.98-.11,.82-.24,1.77-.39,2.85-.15,1.08-.32,2.26-.52,3.52-.2,1.27-.44,2.59-.71,3.95l-4.21,21.14c-.2,.95-.55,1.6-1.04,1.98-.5,.37-1.07,.56-1.72,.56h-3.65c-.87,0-1.53-.25-1.98-.76s-.73-1.12-.86-1.85l-4.1-22.75c-.2-.99-.37-2.01-.52-3.04-.15-1.03-.29-2-.41-2.91-.12-.91-.23-1.74-.32-2.5-.09-.76-.16-1.37-.21-1.85-.05-.55-.16-.93-.34-1.14-.17-.21-.4-.29-.67-.24-.22,.05-.43,.21-.62,.47-.19,.26-.25,.64-.21,1.14,.05,.47,.16,1.26,.32,2.37,.16,1.11,.33,2.36,.5,3.75s.33,2.85,.47,4.36c.14,1.52,.22,2.91,.24,4.18,.05,1.89,.1,3.95,.15,6.19,.05,1.91,.09,4.12,.11,6.62s.04,5.15,.04,7.96h-10.14v-1.53h2.05V39.64h-2.05v-1.53h13.28c1.09,0,1.91,.29,2.44,.86,.54,.57,.86,1.21,.99,1.9l2.91,15.1c.17,.97,.32,1.88,.43,2.72,.11,.85,.19,1.75,.22,2.7,.04,.96,.06,2.03,.08,3.23,.01,1.19,.02,2.61,.02,4.25,0,.55,.09,.93,.26,1.14s.4,.32,.67,.32c.22,0,.45-.11,.67-.32s.34-.59,.34-1.14v-4.2c0-1.21,.02-2.29,.06-3.26,.04-.97,.09-1.87,.17-2.69,.07-.82,.17-1.67,.3-2.54l2.28-15.1c.17-.94,.55-1.68,1.12-2.2,.57-.52,1.4-.78,2.5-.78h13.28v1.53h-1.98v41.62h1.98v1.53h-10.85Z"/><path d="M253.23,82.79l.15-22.75c0-1.34,.07-2.68,.22-4.03,.15-1.34,.32-2.6,.5-3.77,.19-1.17,.37-2.21,.56-3.11,.19-.91,.32-1.6,.39-2.07,.08-.55,.05-.93-.07-1.14-.12-.21-.32-.34-.6-.39-.22-.05-.47,.02-.73,.22-.26,.2-.43,.55-.5,1.04-.08,.5-.17,1.16-.28,1.98-.11,.82-.24,1.77-.39,2.85-.15,1.08-.32,2.26-.52,3.52-.2,1.27-.44,2.59-.71,3.95l-4.21,21.14c-.2,.95-.55,1.6-1.04,1.98-.5,.37-1.07,.56-1.72,.56h-3.65c-.87,0-1.53-.25-1.98-.76-.45-.51-.73-1.12-.86-1.85l-4.1-22.75c-.2-.99-.37-2.01-.52-3.04-.15-1.03-.29-2-.41-2.91-.12-.91-.23-1.74-.32-2.5s-.16-1.37-.21-1.85c-.05-.55-.16-.93-.33-1.14-.17-.21-.4-.29-.67-.24-.22,.05-.43,.21-.62,.47-.19,.26-.25,.64-.21,1.14,.05,.47,.16,1.26,.32,2.37,.16,1.11,.33,2.36,.5,3.75s.33,2.85,.47,4.36c.14,1.52,.22,2.91,.24,4.18,.05,1.89,.1,3.95,.15,6.19,.05,1.91,.09,4.12,.11,6.62s.04,5.15,.04,7.96h-10.14v-1.53h2.05V39.64h-2.05v-1.53h13.28c1.09,0,1.91,.29,2.44,.86,.53,.57,.86,1.21,.99,1.9l2.91,15.1c.17,.97,.32,1.88,.43,2.72,.11,.85,.19,1.75,.22,2.7,.04,.96,.06,2.03,.08,3.23,.01,1.19,.02,2.61,.02,4.25,0,.55,.09,.93,.26,1.14s.4,.32,.67,.32c.22,0,.45-.11,.67-.32s.34-.59,.34-1.14v-4.2c0-1.21,.02-2.29,.06-3.26,.04-.97,.09-1.87,.17-2.69,.07-.82,.17-1.67,.3-2.54l2.28-15.1c.17-.94,.55-1.68,1.12-2.2,.57-.52,1.4-.78,2.5-.78h13.28v1.53h-1.98v41.62h1.98v1.53h-10.85Z"/><path d="M284.63,66.45v-3.77h-7.09v13.76h6.34v-2.83h1.53v9.17h-19.54v-1.53h2.05V39.64h-2.05v-1.53h14.58c1.62,0,2.85,.47,3.69,1.42,.85,.95,1.27,2.27,1.27,3.99v3.92h-1.53v-2.98h-6.34v11.9h7.09v-3.13h1.53v13.24h-1.53Z"/><path d="M306.86,82.79l-3.73-19.09h-2.83v19.09h-11.67v-1.53h2.05V39.64h-2.05v-1.53h22.67c1.42,0,2.47,.3,3.15,.91s1.03,1.6,1.03,2.96v16.11c0,1.17-.23,2.03-.69,2.57s-1.27,.92-2.44,1.12l3.92,19.47h1.75v1.53h-11.15Zm-1.01-36.29c0-.84-.23-1.58-.69-2.2-.46-.62-1.16-.93-2.11-.93h-2.76v15.07h2.5c.87,0,1.6-.21,2.18-.63,.58-.42,.88-1.16,.88-2.2v-9.1Z"/><path d="M54.54,33.15c0,1.82,0,3.37-.02,4.92,0,.23,0,.52-.12,.69-1.19,1.63-1.45,3.39-.98,5.35,.09,.37-.67,.88-.72,1.36-.17,1.45-.19,2.91-.28,4.37-.02,.32-.05,.69-.22,.94-1.05,1.53-1.37,3.15-.84,4.94,.07,.25,.02,.62-.12,.82-1.16,1.6-1.48,3.32-.91,5.21,.06,.2,0,.51-.12,.68-1.14,1.6-1.52,3.31-.93,5.22,.06,.2,.01,.51-.11,.69-1.12,1.6-1.53,3.31-.94,5.22,.06,.2-.03,.47-.1,.69-.39,1.17-.84,2.31-1.16,3.5-.12,.44,.08,.97,.12,1.46,.02,.27,.14,.69,.02,.8-1.54,1.29-.22,2.7-.18,4.04,.02,.74,.24,1.47,.36,2.18-3.47,.67-6.62,.11-9.69-1.74,.79-1.3,1.65-2.65,2.43-4.04,.16-.29,.01-.75,0-1.13,0-.36-.16-.83,0-1.06,1.19-1.61,1.42-3.34,.91-5.24-.06-.21,0-.52,.12-.69,1.19-1.59,1.49-3.32,.93-5.22-.06-.2,0-.51,.12-.69,1.16-1.59,1.51-3.31,.93-5.21-.06-.2-.02-.52,.11-.69,1.21-1.63,1.44-3.4,.97-5.36-.08-.33,.63-.79,.69-1.22,.19-1.45,.25-2.91,.36-4.37,.02-.32-.05-.73,.12-.95,1.14-1.55,1.42-3.23,.91-5.07-.07-.25-.03-.62,.12-.82,1.18-1.59,1.46-3.31,.92-5.21-.07-.24,.08-.55,.17-.81,.5-1.46,1.01-2.91,1.58-4.55-3.93-.7-7.45-1.53-11.01-1.89-3.27-.33-5.49-2.37-7.93-4.11-.38-.27-.61-1.11-.52-1.62,1.25-7.34,2.54-14.68,3.91-22,.11-.57,.86-1.23,1.47-1.46,3.2-1.2,6.4-1.4,9.85-.71,9.26,1.85,18.58,3.35,27.87,5.01,2.65,.47,4.4,2.47,6.44,3.96,.29,.21,.36,.97,.28,1.43-1.26,7.29-2.53,14.58-3.89,21.86-.11,.58-.82,1.29-1.41,1.5-3.24,1.16-6.5,1.69-9.99,.74-2.95-.8-6.04-1.13-9.52-1.74Z"/></svg>